# xmcd
#
# Track frame offsets:
#	150
#	19403
#	36739
#	60444
#	81683
#	99763
#	119040
#	133187
#	150673
#	171981
#	189143
#	206107
#	223161
#	242027
#	263146
#	277392
#	295511
#	324241
#
# Disc length: 4329 seconds
#
# Revision: 1
# Processed by: cddbd v1.5.2PL0 Copyright (c) Steve Scherf et al.
# Submitted via: audiograbber 1.82.02
#
DISCID=1a10e712
DTITLE=Chartbuster - Country 5145
DYEAR=2011
DGENRE=Karaoke
TTITLE0=Tim McGraw - Felt Good On My Lips
TTITLE1=Jerrod Niemann - What Do You Want
TTITLE2=Sara Evans (w/ Hillary Scott) - A Little Bit Stronger
TTITLE3=Zac Brown Band - Colder Weather
TTITLE4=Jason Aldean - Dirt Road Anthem
TTITLE5=Taylor Swift - Mean
TTITLE6=Randy Houser - A Man Like Me
TTITLE7=Chris Young - Tomorrow
TTITLE8=Lady Antebellum - Hello World
TTITLE9=Darius Rucker - This
TTITLE10=Josh Turner - I Wouldn't Be A Man
TTITLE11=Band Perry, The - You Lie
TTITLE12=Easton Corbin - I Can't Love You Back
TTITLE13=Brad Paisley - This Is Country Music
TTITLE14=Miranda Lambert - Heart Like Mine
TTITLE15=Kenny Chesney - Somewhere With You
TTITLE16=Steve Holy - Love Don't Run
TTITLE17=Data - Data Track
EXTD=
EXTT0=
EXTT1=
EXTT2=
EXTT3=
EXTT4=
EXTT5=
EXTT6=
EXTT7=
EXTT8=
EXTT9=
EXTT10=
EXTT11=
EXTT12=
EXTT13=
EXTT14=
EXTT15=
EXTT16=
EXTT17=
PLAYORDER=
